<svg id="machine_learning" xmlns="http://www.w3.org/2000/svg" viewBox="0 0 16.3 17.37"><defs><style>.cls-1,.cls-2{fill:none;stroke:#f59331;stroke-width:0.9px;}.cls-1{stroke-miterlimit:10;}.cls-2{stroke-linecap:round;stroke-linejoin:round;}</style></defs><title>icon_machine_learning</title><circle class="cls-1" cx="11.46" cy="6.06" r="0.64"/><circle class="cls-1" cx="11.46" cy="9.21" r="0.64"/><circle class="cls-1" cx="13.03" cy="12.36" r="0.64"/><path class="cls-2" d="M16.12,6V19c0,1.85,2.85,2.37,4.09.42C22.07,19.89,25,17.26,22.92,14c1.69-1.58.69-4.26-.77-4.25,0.79-1.44-.78-3.55-2.13-3.08A2,2,0,1,0,16.12,6Z" transform="translate(-7.95 -3.76)"/><polyline class="cls-2" points="12.02 2.88 11.36 3.82 10.45 4.11"/><line class="cls-2" x1="14.95" y1="10.21" x2="12.1" y2="9.21"/><line class="cls-2" x1="14.05" y1="9.89" x2="13.74" y2="8.06"/><line class="cls-2" x1="12.21" y1="15.68" x2="13.03" y2="13"/><line class="cls-2" x1="8.17" y1="7.46" x2="10.9" y2="6.36"/><polyline class="cls-2" points="8.16 10.28 10.2 11.67 10.41 13.29"/><circle class="cls-1" cx="4.83" cy="6.06" r="0.64"/><circle class="cls-1" cx="4.83" cy="9.21" r="0.64"/><circle class="cls-1" cx="3.26" cy="12.36" r="0.64"/><path class="cls-2" d="M16.12,6V19c0,1.85-2.87,2.37-4.11.42-1.87.45-4.84-2.18-2.72-5.47-1.69-1.58-.69-4.26.77-4.25-0.79-1.44.8-3.55,2.14-3.08A2,2,0,1,1,16.12,6Z" transform="translate(-7.95 -3.76)"/><polyline class="cls-2" points="4.28 2.88 4.93 3.82 5.85 4.11"/><line class="cls-2" x1="1.35" y1="10.21" x2="4.19" y2="9.21"/><line class="cls-2" x1="2.24" y1="9.89" x2="2.55" y2="8.06"/><line class="cls-2" x1="4.08" y1="15.68" x2="3.26" y2="13"/><line class="cls-2" x1="8.12" y1="7.46" x2="5.4" y2="6.36"/><polyline class="cls-2" points="8.13 10.28 6.09 11.67 5.88 13.29"/><path class="cls-2" d="M15.67,20.12a0.6,0.6,0,0,1,.89,0" transform="translate(-7.95 -3.76)"/></svg>